# Blender v3.1.2 OBJ File: 'modelli.blend'
# www.blender.org
mtllib board.mtl
o Cube_Cube.001
v -0.270000 0.025000 0.270000
v -0.270000 -0.025000 -0.270000
v -0.270000 -0.025000 0.270000
v -0.270000 0.025000 -0.270000
v 0.270000 -0.025000 -0.270000
v 0.270000 0.025000 -0.270000
v 0.270000 -0.025000 0.270000
v 0.270000 0.025000 0.270000
v -0.232000 0.025000 0.232000
v -0.232000 0.025000 -0.232000
v 0.232000 0.025000 0.232000
v 0.232000 0.025000 -0.232000
v -0.232000 0.005000 0.232000
v -0.232000 0.005000 -0.232000
v 0.232000 0.005000 0.232000
v 0.232000 0.005000 -0.232000
vt 0.625000 0.000000
vt 0.375000 0.250000
vt 0.375000 0.000000
vt 0.625000 0.250000
vt 0.375000 0.500000
vt 0.625000 0.500000
vt 0.375000 0.750000
vt 0.625000 0.750000
vt 0.375000 1.000000
vt 0.125000 0.750000
vt 0.125000 0.500000
vt 0.857407 0.732407
vt 0.857407 0.517593
vt 0.875000 0.500000
vt 0.642593 0.732407
vt 0.642593 0.517593
vt 0.375000 0.000000
vt 0.625000 0.250000
vt 0.625000 0.000000
vt 0.375000 0.250000
vt 0.625000 0.500000
vt 0.375000 0.750000
vt 0.625000 0.750000
vt 0.375000 1.000000
vt 0.625000 1.000000
vt 0.125000 0.750000
vt 0.375000 0.500000
vt 0.125000 0.500000
vt 0.625000 1.000000
vt 0.875000 0.750000
vn -1.0000 0.0000 0.0000
vn 0.0000 0.0000 -1.0000
vn 1.0000 0.0000 0.0000
vn 0.0000 0.0000 1.0000
vn 0.0000 -1.0000 -0.0000
vn 0.0000 1.0000 0.0000
usemtl board
s 1
f 1/1/1 2/2/1 3/3/1
f 4/4/2 5/5/2 2/2/2
f 6/6/3 7/7/3 5/5/3
f 8/8/4 3/9/4 7/7/4
f 5/5/5 3/10/5 2/11/5
f 9/12/6 10/13/6 4/14/6
f 11/15/6 6/6/6 12/16/6
f 13/17/3 10/18/3 9/19/3
f 14/20/4 12/21/4 10/18/4
f 12/21/1 15/22/1 11/23/1
f 11/23/2 13/24/2 9/25/2
f 13/26/6 16/27/6 14/28/6
f 1/1/1 4/4/1 2/2/1
f 4/4/2 6/6/2 5/5/2
f 6/6/3 8/8/3 7/7/3
f 8/8/4 1/29/4 3/9/4
f 5/5/5 7/7/5 3/10/5
f 10/13/6 12/16/6 6/6/6
f 1/30/6 8/8/6 11/15/6
f 1/30/6 11/15/6 9/12/6
f 10/13/6 6/6/6 4/14/6
f 1/30/6 9/12/6 4/14/6
f 11/15/6 8/8/6 6/6/6
f 13/17/3 14/20/3 10/18/3
f 14/20/4 16/27/4 12/21/4
f 12/21/1 16/27/1 15/22/1
f 11/23/2 15/22/2 13/24/2
f 13/26/6 15/22/6 16/27/6
