# Blender v3.1.2 OBJ File: 'modelli.blend'
# www.blender.org
mtllib clock_button_right.mtl
o Cube.001_Cube.002
v -0.437330 0.004178 -0.012800
v -0.414290 -0.002734 -0.012800
v -0.437330 -0.002734 -0.012800
v -0.438610 0.004178 0.011520
v -0.438610 -0.002734 -0.011520
v -0.438610 -0.002734 0.011520
v -0.414290 0.004562 0.011520
v -0.437330 0.004562 -0.011520
v -0.437330 0.004562 0.011520
v -0.413010 0.004178 -0.011520
v -0.413010 -0.002734 0.011520
v -0.413010 -0.002734 -0.011520
v -0.414290 0.004178 0.012800
v -0.437330 -0.002734 0.012800
v -0.414290 -0.002734 0.012800
v -0.414290 -0.003066 -0.012159
v -0.413651 -0.003066 -0.011520
v -0.414290 -0.003118 -0.011520
v -0.414290 -0.002925 -0.012629
v -0.413678 -0.003017 -0.012132
v -0.413651 -0.002734 -0.012629
v -0.413181 -0.002734 -0.012159
v -0.413678 -0.002917 -0.012463
v -0.413181 -0.002925 -0.011520
v -0.413347 -0.002917 -0.012132
v -0.414290 0.004370 -0.012629
v -0.413651 0.004178 -0.012629
v -0.414290 0.004178 -0.012800
v -0.413678 0.004461 -0.012132
v -0.413678 0.004362 -0.012463
v -0.413651 0.004511 -0.011520
v -0.414290 0.004511 -0.012159
v -0.414290 0.004562 -0.011520
v -0.413181 0.004370 -0.011520
v -0.413181 0.004178 -0.012159
v -0.413347 0.004362 -0.012132
v -0.413651 -0.003066 0.011520
v -0.414290 -0.003066 0.012159
v -0.414290 -0.003118 0.011520
v -0.413181 -0.002925 0.011520
v -0.413678 -0.003017 0.012132
v -0.413181 -0.002734 0.012159
v -0.413651 -0.002734 0.012629
v -0.413347 -0.002917 0.012132
v -0.414290 -0.002925 0.012629
v -0.413678 -0.002917 0.012463
v -0.414290 0.004511 0.012159
v -0.413651 0.004511 0.011520
v -0.414290 0.004370 0.012629
v -0.413678 0.004461 0.012132
v -0.413651 0.004178 0.012629
v -0.413181 0.004178 0.012159
v -0.413678 0.004362 0.012463
v -0.413181 0.004370 0.011520
v -0.413010 0.004178 0.011520
v -0.413347 0.004362 0.012132
v -0.437969 -0.003066 -0.011520
v -0.437330 -0.003066 -0.012159
v -0.437330 -0.003118 -0.011520
v -0.438439 -0.002925 -0.011520
v -0.437942 -0.003017 -0.012132
v -0.438439 -0.002734 -0.012159
v -0.437969 -0.002734 -0.012629
v -0.438273 -0.002917 -0.012132
v -0.437330 -0.002925 -0.012629
v -0.437942 -0.002917 -0.012463
v -0.437330 0.004511 -0.012159
v -0.437969 0.004511 -0.011520
v -0.437330 0.004370 -0.012629
v -0.437942 0.004461 -0.012132
v -0.437969 0.004178 -0.012629
v -0.438439 0.004178 -0.012159
v -0.437942 0.004362 -0.012463
v -0.438439 0.004370 -0.011520
v -0.438610 0.004178 -0.011520
v -0.438273 0.004362 -0.012132
v -0.437330 -0.003066 0.012159
v -0.437969 -0.003066 0.011520
v -0.437330 -0.003118 0.011520
v -0.437330 -0.002925 0.012629
v -0.437942 -0.003017 0.012132
v -0.437969 -0.002734 0.012629
v -0.438439 -0.002734 0.012159
v -0.437942 -0.002917 0.012463
v -0.438439 -0.002925 0.011520
v -0.438273 -0.002917 0.012132
v -0.437969 0.004511 0.011520
v -0.437330 0.004511 0.012159
v -0.438439 0.004370 0.011520
v -0.437942 0.004461 0.012132
v -0.438439 0.004178 0.012159
v -0.437969 0.004178 0.012629
v -0.438273 0.004362 0.012132
v -0.437330 0.004370 0.012629
v -0.437330 0.004178 0.012800
v -0.437942 0.004362 0.012463
vt 0.612500 0.762500
vt 0.387500 0.987500
vt 0.387500 0.762500
vt 0.612500 0.512500
vt 0.387500 0.737500
vt 0.387500 0.512500
vt 0.862500 0.512500
vt 0.637500 0.737500
vt 0.637500 0.512500
vt 0.612500 0.012500
vt 0.387500 0.237500
vt 0.387500 0.012500
vt 0.612500 0.262500
vt 0.387500 0.487500
vt 0.387500 0.262500
vt 0.137500 0.743742
vt 0.131258 0.737500
vt 0.137500 0.737500
vt 0.137500 0.750000
vt 0.131522 0.743478
vt 0.387500 0.993742
vt 0.381258 0.987500
vt 0.387500 0.000000
vt 0.381522 0.003292
vt 0.387500 0.001670
vt 0.381258 0.012500
vt 0.387500 0.006258
vt 0.126670 0.737500
vt 0.125000 0.743478
vt 0.128292 0.743478
vt 0.131522 0.750000
vt 0.125000 0.743478
vt 0.618742 0.987500
vt 0.612500 0.993742
vt 0.612500 0.987500
vt 0.625000 0.993478
vt 0.618478 0.993478
vt 0.868742 0.737500
vt 0.862500 0.743742
vt 0.862500 0.737500
vt 0.625000 0.012500
vt 0.621708 0.006522
vt 0.623330 0.012500
vt 0.612500 0.006258
vt 0.618742 0.012500
vt 0.612500 0.000000
vt 0.618478 0.006522
vt 0.618478 1.000000
vt 0.131258 0.512500
vt 0.137500 0.506258
vt 0.137500 0.512500
vt 0.125000 0.512500
vt 0.131522 0.506522
vt 0.387500 0.243742
vt 0.381258 0.237500
vt 0.387500 0.250000
vt 0.381522 0.243478
vt 0.381258 0.262500
vt 0.387500 0.256258
vt 0.137500 0.501670
vt 0.131522 0.500000
vt 0.131522 0.503292
vt 0.125000 0.506522
vt 0.131522 0.500000
vt 0.862500 0.506258
vt 0.868742 0.512500
vt 0.625000 0.262500
vt 0.621708 0.256522
vt 0.623330 0.262500
vt 0.612500 0.256258
vt 0.618742 0.262500
vt 0.612500 0.250000
vt 0.618478 0.256522
vt 0.618742 0.237500
vt 0.612500 0.243742
vt 0.612500 0.237500
vt 0.625000 0.243478
vt 0.618478 0.243478
vt 0.625000 0.256522
vt 0.618478 0.250000
vt 0.368742 0.737500
vt 0.362500 0.743742
vt 0.362500 0.737500
vt 0.375000 0.737500
vt 0.368478 0.743478
vt 0.387500 0.743742
vt 0.381258 0.737500
vt 0.387500 0.750000
vt 0.381522 0.743478
vt 0.381258 0.762500
vt 0.387500 0.756258
vt 0.362500 0.748330
vt 0.368478 0.750000
vt 0.368478 0.746708
vt 0.375000 0.743478
vt 0.368478 0.750000
vt 0.637500 0.743742
vt 0.631258 0.737500
vt 0.625000 0.762500
vt 0.621708 0.756522
vt 0.623330 0.762500
vt 0.612500 0.756258
vt 0.618742 0.762500
vt 0.612500 0.750000
vt 0.618478 0.756522
vt 0.618742 0.737500
vt 0.612500 0.743742
vt 0.612500 0.737500
vt 0.625000 0.743478
vt 0.618478 0.743478
vt 0.625000 0.756522
vt 0.618478 0.750000
vt 0.362500 0.506258
vt 0.368742 0.512500
vt 0.362500 0.512500
vt 0.362500 0.500000
vt 0.368478 0.506522
vt 0.387500 0.493742
vt 0.381258 0.487500
vt 0.387500 0.500000
vt 0.381522 0.493478
vt 0.381258 0.512500
vt 0.387500 0.506258
vt 0.375000 0.506522
vt 0.381522 0.506522
vt 0.368478 0.500000
vt 0.375000 0.506522
vt 0.631258 0.512500
vt 0.637500 0.506258
vt 0.625000 0.512500
vt 0.631522 0.506522
vt 0.612500 0.506258
vt 0.618742 0.512500
vt 0.612500 0.500000
vt 0.618478 0.506522
vt 0.618742 0.487500
vt 0.612500 0.493742
vt 0.612500 0.487500
vt 0.625000 0.493478
vt 0.618478 0.493478
vt 0.621708 0.506522
vt 0.625000 0.506522
vt 0.618478 0.500000
vt 0.387500 0.000000
vt 0.625000 0.237500
vt 0.625000 0.012500
vt 0.625000 0.487500
vt 0.625000 0.262500
vt 0.625000 0.987500
vt 0.625000 0.762500
vt 0.381522 0.993478
vt 0.381522 0.000000
vt 0.381522 0.006522
vt 0.125000 0.737500
vt 0.868478 0.743478
vt 0.625000 0.006522
vt 0.618478 0.000000
vt 0.381522 0.250000
vt 0.381522 0.256522
vt 0.137500 0.500000
vt 0.868478 0.506522
vt 0.381522 0.750000
vt 0.381522 0.756522
vt 0.362500 0.750000
vt 0.631522 0.743478
vt 0.625000 0.737500
vt 0.381522 0.500000
vt 0.375000 0.512500
vt 0.125000 0.737500
vt 0.137500 0.500000
vt 0.362500 0.750000
vn -0.0000 -0.0000 -1.0000
vn -1.0000 0.0000 0.0000
vn -0.0000 1.0000 -0.0000
vn 1.0000 0.0000 0.0000
vn 0.0000 0.0000 1.0000
vn 0.0849 -0.9928 -0.0839
vn 0.0799 -0.9936 -0.0799
vn 0.0902 -0.9539 -0.2861
vn 0.1958 -0.6527 -0.7319
vn 0.5674 -0.5968 -0.5674
vn 0.5674 -0.5967 -0.5674
vn 0.7319 -0.6527 -0.1958
vn 0.2861 -0.9539 -0.0902
vn 0.2862 -0.9539 -0.0902
vn 0.2761 -0.9206 -0.2761
vn 0.1958 0.6526 -0.7320
vn 0.0902 0.9539 -0.2862
vn 0.0902 0.9541 -0.2857
vn 0.0902 0.9540 -0.2860
vn 0.0850 0.9929 -0.0836
vn 0.0797 0.9936 -0.0797
vn 0.2859 0.9540 -0.0903
vn 0.2861 0.9540 -0.0902
vn 0.2861 0.9539 -0.0901
vn 0.7320 0.6525 -0.1959
vn 0.5674 0.5967 -0.5674
vn 0.5672 0.5971 -0.5672
vn 0.2761 0.9206 -0.2761
vn 0.0850 -0.9928 0.0839
vn 0.0799 -0.9936 0.0799
vn 0.2862 -0.9539 0.0902
vn 0.2861 -0.9539 0.0902
vn 0.7319 -0.6527 0.1958
vn 0.5674 -0.5968 0.5674
vn 0.5672 -0.5972 0.5671
vn 0.1958 -0.6527 0.7319
vn 0.0902 -0.9539 0.2861
vn 0.2761 -0.9206 0.2761
vn 0.0850 0.9929 0.0836
vn 0.0797 0.9936 0.0797
vn 0.0902 0.9539 0.2862
vn 0.0902 0.9541 0.2857
vn 0.0901 0.9540 0.2861
vn 0.1959 0.6526 0.7320
vn 0.5674 0.5968 0.5674
vn 0.5674 0.5967 0.5674
vn 0.5675 0.5966 0.5675
vn 0.7320 0.6525 0.1959
vn 0.2859 0.9540 0.0903
vn 0.2861 0.9540 0.0902
vn 0.2862 0.9539 0.0902
vn 0.2761 0.9206 0.2761
vn -0.0851 -0.9929 -0.0837
vn -0.0798 -0.9936 -0.0798
vn -0.2862 -0.9539 -0.0902
vn -0.2861 -0.9540 -0.0902
vn -0.2861 -0.9539 -0.0902
vn -0.7317 -0.6529 -0.1958
vn -0.5673 -0.5969 -0.5673
vn -0.5672 -0.5971 -0.5672
vn -0.5674 -0.5968 -0.5674
vn -0.1958 -0.6527 -0.7319
vn -0.0901 -0.9539 -0.2862
vn -0.0902 -0.9539 -0.2861
vn -0.2761 -0.9206 -0.2762
vn -0.0851 0.9929 -0.0835
vn -0.0797 0.9936 -0.0797
vn -0.0903 0.9540 -0.2859
vn -0.0902 0.9541 -0.2857
vn -0.0902 0.9539 -0.2861
vn -0.1958 0.6527 -0.7319
vn -0.5674 0.5967 -0.5674
vn -0.5673 0.5970 -0.5673
vn -0.5674 0.5966 -0.5675
vn -0.7322 0.6523 -0.1959
vn -0.2859 0.9540 -0.0903
vn -0.2862 0.9539 -0.0902
vn -0.2763 0.9205 -0.2763
vn -0.0851 -0.9929 0.0837
vn -0.0798 -0.9936 0.0798
vn -0.0901 -0.9539 0.2862
vn -0.0902 -0.9539 0.2861
vn -0.1958 -0.6527 0.7319
vn -0.5674 -0.5967 0.5674
vn -0.5671 -0.5972 0.5672
vn -0.5674 -0.5967 0.5675
vn -0.7319 -0.6527 0.1958
vn -0.2862 -0.9539 0.0902
vn -0.2861 -0.9540 0.0902
vn -0.2861 -0.9539 0.0902
vn -0.2761 -0.9206 0.2762
vn -0.0851 0.9929 0.0835
vn -0.0797 0.9936 0.0797
vn -0.2859 0.9540 0.0903
vn -0.2862 0.9539 0.0902
vn -0.2861 0.9539 0.0902
vn -0.7323 0.6522 0.1959
vn -0.5672 0.5972 0.5671
vn -0.5673 0.5969 0.5673
vn -0.5673 0.5969 0.5674
vn -0.1958 0.6527 0.7319
vn -0.0903 0.9540 0.2859
vn -0.0902 0.9541 0.2857
vn -0.0902 0.9539 0.2862
vn -0.2763 0.9205 0.2763
vn 0.0802 -0.9968 0.0000
vn 0.2873 -0.9578 0.0000
vn 0.2874 -0.9578 0.0000
vn 0.7463 -0.6656 0.0000
vn 0.2585 -0.0000 -0.9660
vn 0.7071 0.0000 -0.7071
vn 0.9660 0.0000 -0.2585
vn 0.0801 0.9968 -0.0000
vn 0.0800 0.9968 -0.0000
vn 0.2873 0.9578 -0.0000
vn 0.2874 0.9578 -0.0000
vn 0.7464 0.6655 -0.0000
vn 0.7465 0.6654 -0.0000
vn 0.7463 0.6656 -0.0000
vn 0.2585 0.0000 0.9660
vn 0.7071 0.0000 0.7071
vn 0.9660 -0.0000 0.2585
vn -0.0000 -0.9968 0.0802
vn 0.0000 -0.9578 0.2874
vn 0.0000 -0.6656 0.7463
vn 0.0000 0.9968 0.0799
vn 0.0000 0.9968 0.0800
vn 0.0000 0.9578 0.2874
vn 0.0000 0.6654 0.7464
vn 0.0000 0.6655 0.7464
vn 0.0000 0.6656 0.7463
vn -0.9660 -0.0000 0.2585
vn -0.7071 -0.0000 0.7071
vn -0.2585 0.0000 0.9660
vn -0.0800 -0.9968 0.0000
vn -0.2873 -0.9578 0.0000
vn -0.2874 -0.9578 0.0000
vn -0.7464 -0.6655 0.0000
vn -0.7466 -0.6653 0.0000
vn -0.7465 -0.6653 0.0000
vn -0.0800 0.9968 -0.0000
vn -0.0801 0.9968 -0.0000
vn -0.2873 0.9578 -0.0000
vn -0.2874 0.9578 -0.0000
vn -0.7466 0.6652 0.0000
vn -0.7466 0.6653 -0.0000
vn -0.7462 0.6657 -0.0000
vn -0.2585 -0.0000 -0.9660
vn -0.7071 -0.0000 -0.7071
vn -0.9660 -0.0000 -0.2585
vn 0.0000 -0.9968 -0.0802
vn -0.0000 -0.9578 -0.2874
vn -0.0000 -0.6656 -0.7463
vn -0.0000 0.9968 -0.0799
vn -0.0000 0.9968 -0.0800
vn -0.0000 0.9578 -0.2874
vn -0.0000 0.6655 -0.7464
vn -0.0000 0.6654 -0.7464
vn -0.0000 0.6656 -0.7463
vn 0.0000 -1.0000 0.0000
vn 0.0848 -0.9928 -0.0847
vn 0.2020 -0.6732 -0.7114
vn 0.7113 -0.6733 -0.2019
vn 0.2020 0.6731 -0.7114
vn 0.0901 0.9540 -0.2861
vn 0.0846 0.9928 -0.0846
vn 0.2861 0.9539 -0.0902
vn 0.7113 0.6733 -0.2020
vn 0.5674 0.5967 -0.5675
vn 0.0845 -0.9928 0.0845
vn 0.7112 -0.6733 0.2019
vn 0.5674 -0.5967 0.5674
vn 0.2020 -0.6731 0.7114
vn 0.0845 0.9928 0.0845
vn 0.0902 0.9540 0.2860
vn 0.2020 0.6731 0.7114
vn 0.7113 0.6732 0.2020
vn 0.2861 0.9539 0.0901
vn -0.0845 -0.9928 -0.0845
vn -0.7114 -0.6731 -0.2020
vn -0.5672 -0.5970 -0.5673
vn -0.2019 -0.6732 -0.7114
vn -0.0850 0.9928 -0.0845
vn -0.0902 0.9539 -0.2862
vn -0.2019 0.6731 -0.7115
vn -0.5674 0.5968 -0.5674
vn -0.7114 0.6731 -0.2020
vn -0.2861 0.9539 -0.0902
vn -0.0845 -0.9928 0.0845
vn -0.2019 -0.6731 0.7114
vn -0.5674 -0.5968 0.5674
vn -0.7114 -0.6731 0.2020
vn -0.0850 0.9928 0.0845
vn -0.7115 0.6731 0.2020
vn -0.5672 0.5971 0.5672
vn -0.2019 0.6732 0.7114
vn -0.0902 0.9539 0.2861
vn -0.7461 0.6658 0.0000
usemtl pulsante.001
s 1
f 1/1/1 2/2/1 3/3/1
f 4/4/2 5/5/2 6/6/2
f 7/7/3 8/8/3 9/9/3
f 10/10/4 11/11/4 12/12/4
f 13/13/5 14/14/5 15/15/5
f 16/16/6 17/17/6 18/18/7
f 19/19/8 20/20/8 16/16/8
f 21/21/9 19/22/9 2/2/9
f 22/23/10 23/24/11 21/25/11
f 24/26/12 22/27/12 12/12/12
f 24/28/13 20/29/14 25/30/14
f 20/20/15 23/31/15 25/32/15
f 26/33/16 27/34/16 28/35/16
f 26/33/17 29/36/18 30/37/19
f 31/38/20 32/39/20 33/40/21
f 34/41/22 29/42/23 31/43/24
f 35/44/25 34/45/25 10/10/25
f 27/46/26 36/47/27 35/44/26
f 30/37/28 29/36/28 36/48/28
f 37/49/29 38/50/29 39/51/30
f 40/52/31 41/53/31 37/49/32
f 42/54/33 40/55/33 11/11/33
f 43/56/34 44/57/34 42/54/35
f 45/58/36 43/59/36 15/15/36
f 45/60/37 41/61/37 46/62/37
f 41/53/38 44/63/38 46/64/38
f 47/65/39 48/66/39 7/7/40
f 49/67/41 50/68/42 47/69/43
f 51/70/44 49/71/44 13/13/44
f 52/72/45 53/73/46 51/70/47
f 54/74/48 52/75/48 55/76/48
f 54/74/49 50/77/50 56/78/51
f 50/68/52 53/79/52 56/80/52
f 57/81/53 58/82/53 59/83/54
f 60/84/55 61/85/56 57/81/57
f 62/86/58 60/87/58 5/5/58
f 63/88/59 64/89/60 62/86/61
f 65/90/62 63/91/62 3/3/62
f 65/92/63 61/93/64 66/94/64
f 61/85/65 64/95/65 66/96/65
f 67/97/66 68/98/66 8/8/67
f 69/99/68 70/100/69 67/101/70
f 71/102/71 69/103/71 1/1/71
f 72/104/72 73/105/73 71/102/74
f 74/106/75 72/107/75 75/108/75
f 74/106/76 70/109/77 76/110/77
f 70/100/78 73/111/78 76/112/78
f 77/113/79 78/114/79 79/115/80
f 80/116/81 81/117/82 77/113/82
f 82/118/83 80/119/83 14/14/83
f 83/120/84 84/121/85 82/118/86
f 85/122/87 83/123/87 6/6/87
f 85/122/88 81/124/89 86/125/90
f 81/117/91 84/126/91 86/127/91
f 87/128/92 88/129/92 9/9/93
f 89/130/94 90/131/95 87/128/96
f 91/132/97 89/133/97 4/4/97
f 92/134/98 93/135/99 91/132/100
f 94/136/101 92/137/101 95/138/101
f 94/136/102 90/139/103 96/140/104
f 90/141/105 93/142/105 96/143/105
f 18/18/106 37/49/106 39/51/106
f 17/17/107 40/52/108 37/49/108
f 24/26/109 11/11/109 40/55/109
f 28/35/110 21/21/110 2/2/110
f 27/46/111 22/27/111 21/144/111
f 35/44/112 12/12/112 22/27/112
f 7/7/113 31/38/114 33/40/114
f 48/145/115 34/45/116 31/146/116
f 54/74/117 10/10/118 34/45/119
f 15/15/120 51/70/120 13/13/120
f 43/59/121 52/75/121 51/70/121
f 42/54/122 55/76/122 52/75/122
f 39/51/123 77/113/123 79/115/123
f 38/50/124 80/116/124 77/113/124
f 45/58/125 14/14/125 80/119/125
f 9/9/126 47/65/126 7/7/127
f 88/147/128 49/71/128 47/148/128
f 94/136/129 13/13/130 49/71/131
f 6/6/132 91/132/132 4/4/132
f 83/123/133 92/137/133 91/132/133
f 82/118/134 95/138/134 92/137/134
f 79/115/135 57/81/135 59/83/135
f 78/114/136 60/87/137 57/81/137
f 85/122/138 5/5/139 60/87/140
f 8/8/141 87/128/141 9/9/142
f 68/98/143 89/133/144 87/128/144
f 74/106/145 4/4/146 89/133/147
f 3/3/148 71/102/148 1/1/148
f 63/91/149 72/107/149 71/102/149
f 62/86/150 75/108/150 72/107/150
f 59/83/151 16/16/151 18/18/151
f 58/82/152 19/19/152 16/16/152
f 65/90/153 2/2/153 19/22/153
f 33/40/154 67/97/154 8/8/155
f 32/149/156 69/103/156 67/150/156
f 26/33/157 1/1/158 69/103/159
f 79/115/160 18/18/160 39/51/160
f 1/1/1 28/35/1 2/2/1
f 4/4/2 75/108/2 5/5/2
f 7/7/3 33/40/3 8/8/3
f 10/10/4 55/76/4 11/11/4
f 13/13/5 95/138/5 14/14/5
f 16/16/6 20/20/161 17/17/6
f 19/19/8 23/31/8 20/20/8
f 21/21/162 23/151/162 19/22/162
f 22/23/10 25/152/10 23/24/11
f 24/26/163 25/153/163 22/27/163
f 24/28/13 17/154/13 20/29/14
f 26/33/164 30/37/164 27/34/164
f 26/33/17 32/149/165 29/36/18
f 31/38/20 29/155/166 32/39/20
f 34/41/22 36/156/167 29/42/23
f 35/44/168 36/47/168 34/45/168
f 27/46/26 30/157/169 36/47/27
f 37/49/29 41/53/170 38/50/29
f 40/52/31 44/63/31 41/53/31
f 42/54/171 44/57/171 40/55/171
f 43/56/34 46/158/172 44/57/34
f 45/58/173 46/159/173 43/59/173
f 45/60/37 38/160/37 41/61/37
f 47/65/39 50/161/174 48/66/39
f 49/67/41 53/79/175 50/68/42
f 51/70/176 53/73/176 49/71/176
f 52/72/45 56/80/45 53/73/46
f 54/74/177 56/78/177 52/75/177
f 54/74/49 48/145/178 50/77/50
f 57/81/53 61/85/179 58/82/53
f 60/84/55 64/95/57 61/85/56
f 62/86/180 64/89/180 60/87/180
f 63/88/59 66/162/181 64/89/60
f 65/90/182 66/163/182 63/91/182
f 65/92/63 58/164/64 61/93/64
f 67/97/66 70/165/183 68/98/66
f 69/99/68 73/111/184 70/100/69
f 71/102/185 73/105/185 69/103/185
f 72/104/72 76/112/186 73/105/73
f 74/106/187 76/110/187 72/107/187
f 74/106/76 68/166/188 70/109/77
f 77/113/79 81/117/189 78/114/79
f 80/116/81 84/126/82 81/117/82
f 82/118/190 84/121/190 80/119/190
f 83/120/84 86/167/191 84/121/85
f 85/122/192 86/125/192 83/123/192
f 85/122/88 78/168/90 81/124/89
f 87/128/92 90/131/193 88/129/92
f 89/130/94 93/142/95 90/131/95
f 91/132/194 93/135/194 89/133/194
f 92/134/98 96/143/195 93/135/99
f 94/136/196 96/140/196 92/137/196
f 94/136/102 88/147/197 90/139/103
f 18/18/106 17/17/106 37/49/106
f 17/17/107 24/169/107 40/52/108
f 24/26/109 12/12/109 11/11/109
f 28/35/110 27/34/110 21/21/110
f 27/46/111 35/44/111 22/27/111
f 35/44/112 10/10/112 12/12/112
f 7/7/113 48/66/114 31/38/114
f 48/145/115 54/74/115 34/45/116
f 54/74/117 55/76/117 10/10/118
f 15/15/120 43/59/120 51/70/120
f 43/59/121 42/54/121 52/75/121
f 42/54/122 11/11/122 55/76/122
f 39/51/123 38/50/123 77/113/123
f 38/50/124 45/170/124 80/116/124
f 45/58/125 15/15/125 14/14/125
f 9/9/126 88/129/127 47/65/126
f 88/147/128 94/136/128 49/71/128
f 94/136/129 95/138/131 13/13/130
f 6/6/132 83/123/132 91/132/132
f 83/123/133 82/118/133 92/137/133
f 82/118/134 14/14/134 95/138/134
f 79/115/135 78/114/135 57/81/135
f 78/114/136 85/122/136 60/87/137
f 85/122/138 6/6/138 5/5/139
f 8/8/141 68/98/142 87/128/141
f 68/98/143 74/106/143 89/133/144
f 74/106/145 75/108/198 4/4/146
f 3/3/148 63/91/148 71/102/148
f 63/91/149 62/86/149 72/107/149
f 62/86/150 5/5/150 75/108/150
f 59/83/151 58/82/151 16/16/151
f 58/82/152 65/171/152 19/19/152
f 65/90/153 3/3/153 2/2/153
f 33/40/154 32/39/155 67/97/154
f 32/149/156 26/33/156 69/103/156
f 26/33/157 28/35/159 1/1/158
f 79/115/160 59/83/160 18/18/160
